<svg width="41" height="41" viewBox="0 0 41 41" fill="none" xmlns="http://www.w3.org/2000/svg">
<g clip-path="url(#clip0_40_13)">
<path d="M10.3751 40.4599C8.82284 40.4426 7.28516 40.1579 5.82957 39.6183C4.76664 39.2254 3.80495 38.5999 3.01481 37.7876C2.20028 36.999 1.57387 36.0371 1.18212 34.9732C0.64299 33.5177 0.358693 31.9801 0.341703 30.4281C0.222487 27.8478 0.198486 27.0739 0.198486 20.5359C0.198486 13.9979 0.224848 13.2267 0.340522 10.6445C0.359574 9.09304 0.644221 7.5563 1.18212 6.10093C1.57578 5.03782 2.2013 4.07575 3.01324 3.2846C3.8024 2.4708 4.76454 1.84497 5.82839 1.45348C7.28397 0.913905 8.82166 0.629208 10.3739 0.611885C12.955 0.493849 13.7301 0.469849 20.2645 0.469849C26.799 0.469849 27.5737 0.49621 30.1559 0.611885C31.7078 0.630802 33.2449 0.915451 34.7007 1.45348C35.7641 1.84549 36.7259 2.4711 37.5154 3.28421C38.3288 4.07396 38.9547 5.03609 39.3469 6.09975C39.8867 7.55531 40.1715 9.093 40.1889 10.6453C40.307 13.2275 40.331 14.0007 40.331 20.5367C40.331 27.0727 40.307 27.8458 40.1889 30.4281C40.1702 31.9801 39.8854 33.5174 39.3469 34.9732C38.9396 36.0289 38.3158 36.9876 37.5156 37.7877C36.7153 38.5877 35.7565 39.2113 34.7007 39.6183C33.2451 40.158 31.7074 40.4428 30.1551 40.4603C27.5753 40.5783 26.7998 40.6023 20.2637 40.6023C13.7277 40.6023 12.9546 40.5795 10.3747 40.4603" fill="url(#paint0_radial_40_13)"/>
<path d="M15.4897 20.7291C15.4898 19.7462 15.7814 18.7853 16.3275 17.9681C16.8737 17.1509 17.6499 16.5139 18.5581 16.1379C19.4662 15.7618 20.4655 15.6635 21.4295 15.8554C22.3935 16.0472 23.279 16.5207 23.9739 17.2158C24.6689 17.9109 25.1421 18.7965 25.3337 19.7606C25.5254 20.7246 25.4268 21.7239 25.0505 22.6319C24.6743 23.54 24.0372 24.3161 23.2198 24.862C22.4025 25.408 21.4416 25.6993 20.4586 25.6992C19.1407 25.699 17.8767 25.1752 16.9449 24.2432C16.0131 23.3111 15.4896 22.0471 15.4897 20.7291ZM12.8028 20.7291C12.8028 22.2433 13.2518 23.7234 14.0931 24.9824C14.9343 26.2414 16.13 27.2227 17.5289 27.8021C18.9278 28.3816 20.4671 28.5332 21.9522 28.2378C23.4373 27.9424 24.8014 27.2132 25.8721 26.1425C26.9428 25.0719 27.6719 23.7077 27.9673 22.2227C28.2627 20.7376 28.1111 19.1982 27.5317 17.7993C26.9522 16.4004 25.9709 15.2048 24.712 14.3635C23.453 13.5223 21.9728 13.0733 20.4586 13.0733C19.4532 13.0732 18.4577 13.2712 17.5288 13.656C16.6 14.0407 15.756 14.6046 15.0451 15.3155C14.3341 16.0264 13.7702 16.8704 13.3855 17.7993C13.0008 18.7281 12.8028 19.7237 12.8028 20.7291ZM26.6284 12.7699C26.6282 13.1238 26.733 13.4697 26.9294 13.764C27.1259 14.0583 27.4052 14.2877 27.732 14.4233C28.0589 14.5588 28.4186 14.5944 28.7656 14.5255C29.1127 14.4567 29.4315 14.2864 29.6819 14.0363C29.9322 13.7862 30.1027 13.4675 30.1719 13.1205C30.2411 12.7735 30.2058 12.4138 30.0705 12.0868C29.9353 11.7599 29.7061 11.4804 29.412 11.2837C29.1178 11.0869 28.772 10.9819 28.4182 10.9817C27.9439 10.9819 27.4891 11.1704 27.1536 11.5057C26.8182 11.8409 26.6295 12.2957 26.6291 12.7699M14.4361 32.8651C13.4906 32.8547 12.5541 32.6817 11.6673 32.3536C11.0243 32.1058 10.4402 31.726 9.9528 31.2388C9.46538 30.7515 9.08537 30.1677 8.83724 29.5247C8.50901 28.638 8.33599 27.7014 8.32576 26.756C8.25336 25.1845 8.2392 24.7124 8.2392 20.7311C8.2392 16.7497 8.25494 16.2788 8.32576 14.7057C8.33723 13.7604 8.51021 12.824 8.83724 11.937C9.08508 11.2937 9.46498 10.7096 9.95243 10.2221C10.4399 9.73465 11.0241 9.35475 11.6673 9.10691C12.554 8.77869 13.4906 8.60567 14.4361 8.59542C16.0075 8.52303 16.4796 8.50886 20.4594 8.50886C24.4392 8.50886 24.9117 8.52421 26.4847 8.59582C27.43 8.60729 28.3664 8.78027 29.2535 9.1073C29.8967 9.35517 30.4809 9.73507 30.9683 10.2225C31.4558 10.71 31.8357 11.2941 32.0836 11.9374C32.4118 12.8241 32.5848 13.7607 32.595 14.7061C32.6674 16.2799 32.6816 16.7497 32.6816 20.7314C32.6816 24.7132 32.667 25.1837 32.595 26.7568C32.584 27.7021 32.411 28.6386 32.0836 29.5255C31.8354 30.1684 31.4554 30.7523 30.968 31.2396C30.4806 31.7268 29.8965 32.1065 29.2535 32.3544C28.3668 32.6826 27.4302 32.8556 26.4847 32.8659C24.9133 32.9383 24.4411 32.9525 20.4594 32.9525C16.4777 32.9525 16.0071 32.9379 14.4361 32.8659M14.3125 5.9109C13.0754 5.93523 11.8515 6.16937 10.6928 6.60337C9.70225 6.98634 8.80269 7.57208 8.05176 8.323C7.30084 9.07393 6.7151 9.97349 6.33213 10.964C5.89819 12.1227 5.66405 13.3467 5.63966 14.5838C5.56609 16.1733 5.54956 16.6816 5.54956 20.7307C5.54956 24.7797 5.56648 25.2876 5.63966 26.8776C5.66404 28.1146 5.89818 29.3386 6.33213 30.4973C6.71513 31.4878 7.30086 32.3874 8.05179 33.1383C8.80271 33.8892 9.70226 34.4749 10.6928 34.8579C11.8515 35.2917 13.0755 35.5259 14.3125 35.5504C15.9029 35.6228 16.4104 35.6405 20.4594 35.6405C24.5084 35.6405 25.0164 35.6236 26.6063 35.5504C27.8434 35.526 29.0673 35.2918 30.2261 34.8579C31.2166 34.4749 32.1161 33.8892 32.867 33.1383C33.618 32.3874 34.2037 31.4878 34.5867 30.4973C35.0212 29.3387 35.2554 28.1147 35.2792 26.8776C35.3516 25.2868 35.3681 24.7797 35.3681 20.7307C35.3681 16.6816 35.3512 16.1737 35.2792 14.5838C35.2549 13.3467 35.0207 12.1227 34.5867 10.964C34.2037 9.97368 33.6181 9.07426 32.8674 8.32335C32.1167 7.57245 31.2175 6.98661 30.2273 6.60337C29.0686 6.16909 27.8446 5.93494 26.6075 5.9109C25.0176 5.83811 24.5096 5.8208 20.4614 5.8208C16.4132 5.8208 15.904 5.83772 14.3133 5.9109" fill="white"/>
</g>
<defs>
<radialGradient id="paint0_radial_40_13" cx="0" cy="0" r="1" gradientUnits="userSpaceOnUse" gradientTransform="translate(2.79566 39.723) scale(50.9528)">
<stop offset="0.09" stop-color="#FA8F21"/>
<stop offset="0.78" stop-color="#D82D7E"/>
</radialGradient>
<clipPath id="clip0_40_13">
<rect width="40.1321" height="40.1321" fill="white" transform="translate(0.198486 0.469849)"/>
</clipPath>
</defs>
</svg>
